<svg width="512" height="512" viewBox="0 0 512 512" fill="none" xmlns="http://www.w3.org/2000/svg">
<rect width="512" height="512" fill="#161616"/>
<path d="M84.3134 241.16C87.86 241.16 90.7534 240.647 92.9934 239.62C95.3267 238.5 97.1 237.053 98.3134 235.28C99.62 233.413 100.507 231.313 100.973 228.98C101.44 226.553 101.673 224.08 101.673 221.56V219.04H120.153V221.56C120.153 233.227 117.073 242.233 110.913 248.58C104.847 254.833 95.98 257.96 84.3134 257.96C73.1134 257.96 64.2467 254.553 57.7134 247.74C51.18 240.927 47.9134 230.987 47.9134 217.92V196.08C47.9134 189.827 48.7534 184.227 50.4334 179.28C52.1134 174.24 54.54 170.04 57.7134 166.68C60.8867 163.227 64.7134 160.613 69.1934 158.84C73.6734 156.973 78.7134 156.04 84.3134 156.04C90.1 156.04 95.2334 156.88 99.7134 158.56C104.193 160.24 107.927 162.667 110.913 165.84C113.993 169.013 116.28 172.84 117.773 177.32C119.36 181.8 120.153 186.84 120.153 192.44V194.96H101.673V192.44C101.673 190.107 101.393 187.773 100.833 185.44C100.273 183.107 99.34 181.007 98.0334 179.14C96.7267 177.273 94.9534 175.78 92.7134 174.66C90.4734 173.447 87.6734 172.84 84.3134 172.84C81.2334 172.84 78.5734 173.447 76.3334 174.66C74.0934 175.78 72.2267 177.367 70.7334 179.42C69.24 181.38 68.12 183.713 67.3734 186.42C66.72 189.033 66.3934 191.787 66.3934 194.68V219.32C66.3934 222.493 66.72 225.433 67.3734 228.14C68.0267 230.753 69.0534 233.04 70.4534 235C71.8534 236.96 73.6734 238.5 75.9134 239.62C78.2467 240.647 81.0467 241.16 84.3134 241.16ZM135.456 158H153.936V198.04H185.576V158H204.056V256H185.576V215.68H153.936V256H135.456V158ZM272.139 235H238.819L234.059 256H214.739L238.119 158H272.839L296.219 256H276.899L272.139 235ZM242.739 217.36H268.079L256.739 167.24H254.219L242.739 217.36ZM305.921 158H376.481V175.64H350.441V256H331.961V175.64H305.921V158ZM405.084 209.52H448.764V225.48H405.084V209.52ZM52.6734 268H71.1534V348.36H115.673V366H52.6734V268ZM160.516 331.56H156.316L128.176 268H148.336L168.496 314.76H171.016L191.176 268H211.336L183.196 331.56H178.996V366H160.516V331.56ZM220.059 268H289.779V298.24L234.339 345.84V348.36H291.459V366H219.219V335.76L274.659 288.16V285.64H220.059V268ZM309.841 268H371.721V285.64H328.321V308.04H370.041V325.68H328.321V348.36H373.401V366H309.841V268ZM460.104 366H441.624V336.6C441.624 334.36 441.017 332.54 439.804 331.14C438.684 329.74 436.771 329.04 434.064 329.04H412.784V366H394.304V268H431.824C436.864 268 441.297 268.7 445.124 270.1C448.951 271.5 452.124 273.46 454.644 275.98C457.257 278.407 459.217 281.253 460.524 284.52C461.924 287.787 462.624 291.287 462.624 295.02V298.38C462.624 302.393 461.551 306.173 459.404 309.72C457.257 313.173 453.944 315.833 449.464 317.7V320.22C452.731 320.593 455.297 321.853 457.164 324C459.124 326.147 460.104 328.853 460.104 332.12V366ZM412.784 311.4H430.424C434.904 311.4 438.311 310.373 440.644 308.32C442.977 306.173 444.144 303.187 444.144 299.36V297.68C444.144 294.413 442.977 291.613 440.644 289.28C438.311 286.853 434.904 285.64 430.424 285.64H412.784V311.4Z" fill="white"/>
</svg>
